<?xml version="1.0" standalone="no"?>
<!DOCTYPE svg PUBLIC "-//W3C//DTD SVG 20010904//EN"
 "http://www.w3.org/TR/2001/REC-SVG-20010904/DTD/svg10.dtd">
<svg version="1.0" xmlns="http://www.w3.org/2000/svg"
 width="5316.000000pt" height="5316.000000pt" viewBox="0 0 5316.000000 5316.000000"
 preserveAspectRatio="xMidYMid meet">
<metadata>
Created by potrace 1.16, written by Peter Selinger 2001-2019
</metadata>
<g transform="translate(0.000000,5316.000000) scale(0.100000,-0.100000)"
fill="#000000" stroke="none">
<path d="M25885 42380 c-184 -9 -352 -19 -425 -25 -30 -3 -91 -7 -135 -10
-154 -11 -492 -46 -693 -70 -1013 -125 -1949 -332 -2972 -659 -74 -24 -144
-44 -155 -44 -11 0 -54 -15 -95 -32 -41 -17 -190 -74 -330 -127 -1662 -623
-3135 -1468 -4485 -2572 -637 -521 -1315 -1174 -1866 -1796 -2161 -2440 -3503
-5466 -3858 -8700 -16 -148 -32 -306 -36 -350 -3 -44 -8 -102 -10 -130 -29
-313 -46 -730 -48 -1165 -2 -338 9 -945 17 -959 2 -3 7 -67 11 -141 3 -74 8
-153 10 -175 2 -22 7 -76 10 -120 71 -950 254 -1992 516 -2945 723 -2625 2113
-5004 4064 -6955 2329 -2329 5266 -3854 8485 -4404 371 -64 863 -129 1175
-156 39 -4 86 -8 105 -11 19 -2 130 -10 245 -19 795 -56 1532 -56 2350 1 726
50 1556 173 2299 340 2354 528 4505 1564 6396 3080 445 356 786 661 1219 1089
413 408 693 710 1024 1103 1860 2211 3073 4881 3506 7726 55 361 74 514 116
936 17 168 42 521 50 695 2 66 8 172 11 235 7 146 7 990 0 1130 -3 58 -8 159
-11 225 -5 119 -12 230 -20 335 -2 30 -7 93 -10 140 -67 931 -257 2014 -526
2985 -367 1326 -927 2638 -1627 3810 -891 1493 -2005 2814 -3329 3952 -2142
1840 -4715 3061 -7488 3553 -354 62 -852 132 -1150 160 -60 5 -128 12 -150 15
-69 8 -404 34 -530 40 -66 4 -142 9 -170 12 -81 8 -1327 11 -1490 3z m1740
-1026 c1021 -71 1994 -240 2985 -518 362 -101 970 -300 970 -317 0 -12 -1761
-4403 -1770 -4412 -4 -5 -77 14 -161 41 -727 238 -1631 413 -2364 457 -55 3
-124 8 -152 11 l-53 5 0 2381 0 2381 168 -7 c92 -4 262 -13 377 -22z m-5786
-3287 c485 -1209 881 -2202 881 -2205 0 -4 -65 -34 -143 -67 -202 -85 -718
-344 -945 -474 -537 -308 -1020 -644 -1486 -1034 l-141 -118 -80 83 c-109 114
-394 407 -670 688 -126 130 -309 316 -405 415 -803 823 -1078 1106 -1601 1640
-446 456 -564 577 -567 585 -3 8 125 126 283 261 1152 981 2396 1756 3775
2350 112 49 207 85 211 81 4 -4 403 -996 888 -2205z m15653 -1466 c2 -5 41
-50 87 -100 136 -148 402 -462 566 -666 573 -717 1066 -1463 1500 -2270 155
-289 486 -971 485 -1001 0 -5 -319 -157 -708 -339 -389 -181 -819 -382 -957
-447 -750 -351 -2631 -1229 -2638 -1231 -5 -1 -46 79 -91 178 -404 882 -885
1633 -1553 2422 l-41 49 151 155 c84 85 321 327 527 539 206 211 470 481 585
599 116 119 291 299 390 400 99 102 275 282 390 400 116 118 233 238 260 266
28 28 210 215 405 414 195 199 415 425 489 502 73 76 137 139 141 139 5 0 10
-4 12 -9z m-10202 -995 c797 -68 1443 -200 2165 -441 3396 -1132 5816 -4185
6140 -7745 40 -449 45 -1141 11 -1550 -158 -1867 -832 -3552 -1999 -4993 -344
-425 -801 -888 -1229 -1244 -1442 -1200 -3185 -1914 -5046 -2068 -443 -36
-1050 -36 -1491 0 -1691 139 -3295 744 -4651 1753 -1162 865 -2093 1983 -2730
3277 -511 1040 -797 2090 -902 3320 -21 242 -17 1148 5 1400 72 798 206 1447
447 2165 382 1141 995 2194 1818 3125 144 162 588 607 742 741 955 838 2006
1445 3166 1829 705 234 1498 390 2214 434 96 6 195 13 220 15 121 10 948 -3
1120 -18z m-13521 -4077 c531 -248 1146 -536 1366 -639 220 -103 756 -353
1190 -555 435 -203 791 -370 793 -371 2 -1 -26 -91 -63 -201 -250 -745 -411
-1533 -480 -2340 -8 -100 -15 -204 -15 -231 0 -27 -3 -64 -6 -81 l-6 -31
-2381 0 -2380 0 6 188 c16 452 79 1088 158 1592 167 1070 427 2040 828 3093 6
15 14 27 17 27 4 0 442 -203 973 -451z m27607 -5616 c-43 -1049 -222 -2195
-502 -3223 -106 -387 -309 -1024 -323 -1016 -4 3 -981 460 -2171 1016 -1191
556 -2166 1012 -2167 1014 -1 1 18 74 43 162 180 639 312 1400 349 2009 3 55
8 124 11 153 l5 52 2381 0 2381 0 -7 -167z m-24036 -3255 c374 -880 895 -1737
1488 -2450 39 -48 72 -91 72 -96 0 -5 -69 -75 -152 -157 -262 -254 -873 -851
-1093 -1066 -115 -113 -304 -297 -420 -410 -115 -112 -304 -297 -420 -410
-115 -113 -307 -299 -425 -415 -118 -115 -316 -308 -440 -429 -355 -348 -451
-440 -460 -440 -10 0 -217 241 -396 460 -584 716 -1122 1523 -1563 2343 -203
377 -470 940 -635 1338 l-54 132 2207 885 c1213 487 2208 886 2211 886 4 1 39
-77 80 -171z m16935 -4034 c198 -203 450 -461 561 -574 110 -113 225 -230 255
-261 30 -31 144 -148 254 -260 110 -113 364 -373 565 -579 200 -206 460 -472
576 -590 257 -261 393 -403 394 -411 0 -9 -237 -233 -400 -379 -52 -47 -97
-87 -100 -90 -3 -3 -54 -48 -115 -100 -924 -799 -1932 -1474 -3015 -2019 -292
-148 -572 -281 -589 -281 -5 0 -124 287 -264 638 -141 350 -540 1345 -887
2211 -347 865 -630 1574 -628 1575 2 0 82 40 178 88 854 425 1719 1029 2400
1677 l95 90 180 -183 c99 -100 342 -349 540 -552z m-11153 -1470 c728 -271
1539 -463 2338 -553 150 -17 549 -51 603 -51 16 0 17 -120 17 -2385 l0 -2384
-27 4 c-16 2 -100 7 -188 10 -88 3 -252 12 -365 21 -1232 89 -2439 330 -3605
719 -333 111 -895 322 -919 345 -5 5 420 925 974 2112 1094 2341 1031 2208
1042 2208 4 0 62 -21 130 -46z"/>
<path d="M26430 32928 c-202 -181 -204 -184 -305 -273 -80 -71 -226 -201 -340
-304 -22 -20 -81 -72 -130 -116 -50 -44 -115 -102 -145 -130 -31 -27 -76 -68
-100 -90 -51 -46 -369 -329 -565 -504 -71 -63 -175 -156 -230 -206 -56 -49
-139 -124 -185 -165 -47 -41 -107 -95 -135 -120 -61 -56 -48 -44 -514 -461
-212 -189 -405 -362 -430 -384 -59 -52 -694 -618 -746 -666 -46 -42 -293 -263
-480 -429 -71 -63 -179 -160 -240 -215 -62 -55 -233 -208 -381 -340 -423 -378
-550 -516 -743 -805 -260 -392 -424 -836 -487 -1325 -21 -162 -24 -543 -6
-700 72 -606 290 -1135 662 -1605 105 -133 344 -372 480 -480 465 -369 1021
-598 1605 -659 586 -62 1192 47 1708 307 340 172 473 274 1182 912 83 74 189
169 235 210 47 41 110 98 140 125 115 106 218 195 224 195 8 0 5 -28 -30 -293
-138 -1064 -540 -2085 -1154 -2932 -318 -439 -729 -871 -1110 -1165 -46 -36
-94 -75 -107 -87 -32 -31 -31 -76 3 -102 l27 -21 2449 0 2449 0 24 25 c25 24
32 59 17 81 -4 6 -54 49 -112 94 -855 677 -1532 1626 -1930 2710 -139 377
-252 817 -319 1235 -24 151 -61 458 -56 463 2 2 50 -38 107 -90 57 -51 164
-147 238 -213 74 -66 137 -122 140 -125 3 -3 65 -59 139 -125 74 -66 185 -164
245 -219 271 -241 358 -317 432 -373 452 -343 957 -543 1549 -614 152 -19 513
-16 680 5 381 48 694 142 1025 307 523 262 961 666 1264 1168 721 1191 542
2752 -431 3746 -48 50 -218 207 -378 349 -417 373 -816 729 -829 741 -9 9
-256 229 -420 375 -22 19 -67 60 -101 90 -33 30 -139 125 -235 210 -246 219
-289 258 -340 304 -25 23 -128 116 -230 206 -102 91 -187 167 -190 170 -3 3
-84 75 -180 161 -284 253 -492 439 -535 478 -22 20 -81 72 -130 116 -50 44
-92 82 -95 85 -3 3 -90 82 -195 175 -104 93 -233 208 -285 255 -53 47 -134
119 -180 160 -106 94 -183 163 -190 170 -3 3 -66 59 -140 126 -287 255 -532
474 -662 592 -75 67 -140 122 -145 121 -4 0 -73 -59 -153 -131z"/>
</g>
</svg>
