<?xml version="1.0" standalone="no"?>
<!DOCTYPE svg PUBLIC "-//W3C//DTD SVG 20010904//EN"
 "http://www.w3.org/TR/2001/REC-SVG-20010904/DTD/svg10.dtd">
<svg version="1.0" xmlns="http://www.w3.org/2000/svg"
 width="500.000000pt" height="500.000000pt" viewBox="0 0 500.000000 500.000000"
 preserveAspectRatio="xMidYMid meet">
<metadata>
Created by potrace 1.16, written by Peter Selinger 2001-2019
</metadata>
<g transform="translate(0.000000,500.000000) scale(0.100000,-0.100000)"
fill="#000000" stroke="none">
<path d="M2230 2524 c-141 -42 -253 -118 -336 -227 -52 -68 -105 -176 -122
-248 -73 -298 67 -608 337 -748 105 -54 185 -74 306 -74 262 0 481 136 595
368 49 101 70 187 70 296 0 180 -64 333 -195 465 -132 133 -281 194 -470 193
-76 0 -120 -6 -185 -25z m190 -68 l0 -74 -57 -7 c-32 -4 -87 -18 -122 -31 -36
-14 -68 -21 -72 -17 -4 5 -21 34 -39 65 l-31 57 40 20 c59 31 169 59 229 60
l52 1 0 -74z m440 -102 c36 -34 73 -76 83 -92 17 -30 17 -31 -10 -49 -16 -11
-44 -29 -64 -41 l-36 -22 -33 45 c-18 25 -60 64 -92 87 -32 23 -57 45 -55 48
1 3 17 33 35 67 l32 62 37 -22 c21 -12 67 -49 103 -83z m-284 -61 c94 -37 186
-118 224 -198 68 -143 71 -272 9 -395 -85 -165 -215 -244 -404 -244 -80 0 -97
3 -155 30 -78 37 -160 103 -195 156 -57 86 -87 245 -65 338 12 52 61 148 100
197 32 41 101 90 158 112 115 45 221 47 328 4z m-647 -125 c31 -17 57 -32 58
-33 1 0 -9 -29 -22 -62 -14 -34 -28 -89 -31 -122 l-7 -61 -78 0 c-91 0 -88 -7
-64 114 15 81 61 196 78 196 5 0 35 -14 66 -32z m1129 -335 c-5 -76 -44 -213
-68 -237 -16 -16 -142 54 -134 74 31 73 44 115 50 168 l6 61 42 4 c22 2 56 4
75 5 l34 2 -5 -77z m-995 -276 c39 -41 82 -80 94 -88 l22 -14 -37 -62 c-20
-35 -41 -63 -47 -63 -34 0 -225 190 -225 223 0 11 94 74 113 76 4 1 40 -32 80
-72z m651 -158 c20 -34 35 -63 33 -65 -2 -2 -32 -17 -68 -32 -68 -31 -138 -49
-204 -54 l-40 -3 -3 76 -3 76 58 7 c32 4 83 18 113 31 30 13 60 24 66 24 7 1
28 -27 48 -60z"/>
<path d="M2312 2285 c-56 -16 -137 -64 -188 -112 -107 -101 -145 -307 -82
-444 78 -168 236 -261 419 -246 166 14 332 164 353 317 14 100 15 126 4 174
-18 92 -98 208 -176 257 -89 56 -236 80 -330 54z"/>
</g>
</svg>
